<?xml version="1.0" encoding="iso-8859-1"?>
<!-- Generator: Adobe Illustrator 21.1.0, SVG Export Plug-In . SVG Version: 6.00 Build 0)  -->
<svg version="1.1" id="Ebene_2" xmlns="http://www.w3.org/2000/svg" xmlns:xlink="http://www.w3.org/1999/xlink" x="0px" y="0px"
	 viewBox="0 0 595.3 171" style="enable-background:new 0 0 595.3 171;" xml:space="preserve">
<style type="text/css">
	.st0{fill:#FFFFFF;}
</style>
<path class="st0" d="M536.6,83.5c-14.3,0-26.6-0.3-34.9,0.5c-2.8,0.3-4.8,1.6-6.6,2.6c-4.5,2.3-7.1,4.2-5.6,5.4
	c5,4.1,29.2,3.6,25.8,24.8c-0.5,3.3-4.3,16.8-13.8,16.8c-12.6,0-13.1-23.4-13.1-30.8c0-3.6-2.9-3.6-6-3.7c-4.7-0.2-12-1.1-21.4-2.3
	c-15.8-2.1-34.4-5.1-43.6-4.9c-12.2,0.2-19.8,2.9-18.2,15.5c1.6,12.6,11.5,31,12.2,33.5c0.7,2.6,3.7,10.5-1.2,11.9
	c-8.1,2.4-15.3-10.3-18-30.2c-2.7-19.7-3.9-33.7-3.9-33.7l25.3-58.4c0,0,4.6-10.5,0.7-19.2s-16.9-21.9-27.4,3.5
	c-10.5,25.3-11.6,47.4-12.1,58.1s-0.6,29.3-0.6,29.3s-14.4,29.1-23.1,29.2c-14.9,0.1-23.5-45.8-49-45.8c0,0-11.3-0.7-24.2,11
	c-13,11.7-44.2,46.6-65.6,46.6c-13.8,0-19.7-11.2-19.7-17.7c0-7.7,11.6-19.2,24.3-21.2c6.6-1.1,4.6-5.9-5.2-7.1
	c-2-0.3-5.7-0.6-25.8-1.4c-33.2-1.3-41.6-1.2-44.7-1.1c-5.6,0.2-8.1,1.2-8,2.1c0.1,0.8,2.8,0.9,4.8,1.6c6.5,2,17.5,7.1,17.2,19.4
	c-0.2,8.4-4.5,18-11.6,17.9c-9.6-0.1-12.5-19.5-12.2-27.1c0.1-2.8,0.3-4.2-0.1-4.5c-0.1-0.1-7.7-3-21,11s-26.6,35.4-33.7,35.4
	s-15.6-24-17.9-33.2c-2.3-9.2-5.4-22.2-11.9-22.2c-6.7,0-13.6,15.4-17.8,25.6s-7.8,20.8-10.5,20.8s-4.3-14.3-4.7-20.8
	c-0.3-4.7,0.3-7.1,0.3-7.1S47,55.7,47,38c0-8.2-2.4-12.6-10.8-11.7c-3,0.3-20.6,0.7-27.7,49.2C3.9,106.8,4.3,108,4.3,108
	s-4.2,2.3-4.2,7.2c0,5,3,6.9,3,6.9S-1.6,171,12.3,171c14.8,0,23.2-33,25-38.8s7.3-25.4,8.9-25.4c2,0,5.3,26.7,8,35.1
	c2.7,8.3,9.1,26.3,23,26.3c16,0,35-45.2,35-45.2s-4.8,32.3,26,32.1c25.7-0.2,28.4-27.8,28.4-33.3c0-15.1-7.5-21.3-7.5-21.3l32.3,3.3
	c0,0-14.1,9.8-14.1,21.4c0,9.2,10.3,26.6,31.9,26.6c29.2,0,63.7-41.9,63.7-41.9s-1.6,5.8-1.6,15.3s3.3,20.3,17.3,20
	c14.3-0.3,21.6-8.5,25.1-15c2.3-4.3,3-7.9,3-7.9s13.1,21.9,28.6,21.8c17-0.1,28.7-27.4,28.7-27.4s0.3,46.1,26.7,46.1
	c10,0,27.5-3.6,31.4-23.1s-3.7-31.8-3.7-31.8s33.8,0.1,39.2,0.2c5.4,0.1,9.9,0.2,9.9,0.2s-2.1,11.1-2.1,17.1c0,6,1.3,23.6,20.4,23.6
	c19.1,0,29.5-24.9,29.5-38.1c0-13.3-7.8-19.7-7.8-19.7s12.7-2.4,31.2-2.2c23.2,0.2,38.1,8,38.1,21.9c0,14-8.4,15.4-13.7,15.5
	c-4.3,0.1-11.1-6-11.9-19c-0.3-4.8,0.6-9.9,0-11.6c-0.4-1.2-6.2-2.6-12.3,1.4c-3.6,2.4-6.8,6.9-6.8,15.8c0,20.3,16.7,35.4,28.7,35.4
	c13.2,0,24.4-9.5,24.4-36.3S578.9,83.5,536.6,83.5z M20.8,62.6c3.8-15.2,12.4-25.4,16.5-24.2c4.5,1.3,4.5,6.5-1.5,19.9
	C25.2,82.1,15,98.5,15,98.5S16.5,79.9,20.8,62.6z M307.4,117c-2.2,13.4-14.9,11.9-14.9,11.9s-9.3-0.6-7.6-11.2
	c1.7-10.7,13.6-18.7,18-17.9C307.2,100.6,309.6,103.6,307.4,117z M391.4,39.1c3.7-18.1,9.2-18.6,9.2-18.6c1.8,0,4,1.3,4,6.9
	c0,14.5-17.1,47-17.1,47S388.1,55.3,391.4,39.1z"/>
</svg>
